<?xml version="1.0" encoding="UTF-8"?>
<!DOCTYPE svg PUBLIC "-//W3C//DTD SVG 1.1//EN" "http://www.w3.org/Graphics/SVG/1.1/DTD/svg11.dtd">
<!-- Creator: CorelDRAW -->
<svg xmlns="http://www.w3.org/2000/svg" xml:space="preserve" width="210mm" height="297mm" version="1.1" shape-rendering="geometricPrecision" text-rendering="geometricPrecision" image-rendering="optimizeQuality" fill-rule="evenodd" clip-rule="evenodd"
viewBox="0 0 21000 29700"
 xmlns:xlink="http://www.w3.org/1999/xlink"
 xmlns:xodm="http://www.corel.com/coreldraw/odm/2003">
 <g id="Layer_x0020_1">
  <metadata id="CorelCorpID_0Corel-Layer"/>
  <g id="_1900154113344">
   <path fill="none" stroke="#E31E24" stroke-width="7.62" stroke-linejoin="bevel" stroke-miterlimit="22.9256" d="M14050 4850c0,0 -7100,0 -7100,0"/>
   <path fill="none" stroke="#E31E24" stroke-width="7.62" stroke-linejoin="bevel" stroke-miterlimit="22.9256" d="M6950 4850c0,0 0,400 0,400"/>
   <path fill="none" stroke="#E31E24" stroke-width="7.62" stroke-linejoin="bevel" stroke-miterlimit="22.9256" d="M6950 5250c0,0 -6050,0 -6050,0"/>
   <path fill="none" stroke="#E31E24" stroke-width="7.62" stroke-linejoin="bevel" stroke-miterlimit="22.9256" d="M900 5250c0,0 0,6050 0,6050"/>
   <path fill="none" stroke="#E31E24" stroke-width="7.62" stroke-linejoin="bevel" stroke-miterlimit="22.9256" d="M900 11300c0,0 -400,0 -400,0"/>
   <path fill="none" stroke="#E31E24" stroke-width="7.62" stroke-linejoin="bevel" stroke-miterlimit="22.9256" d="M500 11300c0,0 0,7100 0,7100"/>
   <path fill="none" stroke="#E31E24" stroke-width="7.62" stroke-linejoin="bevel" stroke-miterlimit="22.9256" d="M500 18400c0,0 400,0 400,0"/>
   <path fill="none" stroke="#E31E24" stroke-width="7.62" stroke-linejoin="bevel" stroke-miterlimit="22.9256" d="M900 18400c0,0 0,6050 0,6050"/>
   <path fill="none" stroke="#E31E24" stroke-width="7.62" stroke-linejoin="bevel" stroke-miterlimit="22.9256" d="M900 24450c0,0 6050,0 6050,0"/>
   <path fill="none" stroke="#E31E24" stroke-width="7.62" stroke-linejoin="bevel" stroke-miterlimit="22.9256" d="M6950 24450c0,0 0,400 0,400"/>
   <path fill="none" stroke="#E31E24" stroke-width="7.62" stroke-linejoin="bevel" stroke-miterlimit="22.9256" d="M6950 24850c0,0 7100,0 7100,0"/>
   <path fill="none" stroke="#E31E24" stroke-width="7.62" stroke-linejoin="bevel" stroke-miterlimit="22.9256" d="M14050 24850c0,0 0,-400 0,-400"/>
   <path fill="none" stroke="#E31E24" stroke-width="7.62" stroke-linejoin="bevel" stroke-miterlimit="22.9256" d="M14050 24450c0,0 6050,0 6050,0"/>
   <path fill="none" stroke="#E31E24" stroke-width="7.62" stroke-linejoin="bevel" stroke-miterlimit="22.9256" d="M20100 24450c0,0 0,-6050 0,-6050"/>
   <path fill="none" stroke="#E31E24" stroke-width="7.62" stroke-linejoin="bevel" stroke-miterlimit="22.9256" d="M20100 18400c0,0 400,0 400,0"/>
   <path fill="none" stroke="#E31E24" stroke-width="7.62" stroke-linejoin="bevel" stroke-miterlimit="22.9256" d="M20500 18400c0,0 0,-7100 0,-7100"/>
   <path fill="none" stroke="#E31E24" stroke-width="7.62" stroke-linejoin="bevel" stroke-miterlimit="22.9256" d="M20500 11300c0,0 -400,0 -400,0"/>
   <path fill="none" stroke="#E31E24" stroke-width="7.62" stroke-linejoin="bevel" stroke-miterlimit="22.9256" d="M20100 11300c0,0 0,-6050 0,-6050"/>
   <path fill="none" stroke="#E31E24" stroke-width="7.62" stroke-linejoin="bevel" stroke-miterlimit="22.9256" d="M20100 5250c0,0 -6050,0 -6050,0"/>
   <path fill="none" stroke="#E31E24" stroke-width="7.62" stroke-linejoin="bevel" stroke-miterlimit="22.9256" d="M14050 5250c0,0 0,-400 0,-400"/>
   <circle fill="none" stroke="#E31E24" stroke-width="7.62" stroke-miterlimit="22.9256" cx="10500" cy="20889.22" r="1050"/>
   <circle fill="none" stroke="#E31E24" stroke-width="7.62" stroke-miterlimit="22.9256" cx="4650" cy="14850" r="500"/>
   <circle fill="none" stroke="#E31E24" stroke-width="7.62" stroke-miterlimit="22.9256" cx="16350" cy="14850" r="500"/>
  </g>
 </g>
</svg>
